<svg width="50" height="27" xmlns="http://www.w3.org/2000/svg"><path d="M19.797 17.879c-.317 2.707-1.319 4.799-3.006 6.275-1.676 1.465-3.908 2.198-6.697 2.198-3.024 0-5.45-1.084-7.278-3.252C1 20.932.092 18.03.092 14.398v-2.46c0-2.38.422-4.471 1.265-6.276.856-1.805 2.063-3.187 3.622-4.148C6.537.54 8.342.054 10.393.054c2.718 0 4.898.762 6.539 2.286 1.64 1.512 2.595 3.61 2.865 6.293h-3.393c-.293-2.04-.931-3.516-1.916-4.43-.972-.914-2.338-1.371-4.095-1.371-2.157 0-3.85.797-5.08 2.39-1.22 1.594-1.829 3.862-1.829 6.803v2.479c0 2.777.58 4.986 1.74 6.627 1.16 1.64 2.784 2.46 4.87 2.46 1.875 0 3.31-.421 4.306-1.265 1.008-.855 1.676-2.338 2.004-4.447h3.393zM28.779.406l8.368 20.883L45.514.406h4.377V26h-3.375v-9.967l.316-10.758L38.43 26h-2.584L27.46 5.328l.334 10.705V26H24.42V.406h4.36z" fill="#0FB5E8"/></svg>
