<svg width="1280" height="935" fill="none" xmlns="http://www.w3.org/2000/svg"><path d="M833.449 503.61c108.979-32.916 940.991 173.166 1139.731 223.261 24.48 6.17 40.12 29.594 36.89 54.631l-33.46 259.638c-3.33 25.91-26.06 44.88-52.15 43.54L270.73 999.707c-46.067-2.367-64.589-60.074-28.076-88.263C413.558 779.503 742.934 530.95 833.449 503.61z" fill="url(#paint0_radial)"/><path d="M175.343 565.776c104.863-44.313 954.067 72.163 1157.007 100.85 24.99 3.533 43.03 25.162 42.49 50.399l-5.67 261.723c-.57 26.122-21.15 47.402-47.23 48.842l-1653.396 91.29c-46.058 2.54-70.609-52.87-37.299-84.78 155.911-149.362 457-431.518 544.098-468.324z" fill="url(#paint1_radial)"/><defs><radialGradient id="paint0_radial" cx="0" cy="0" r="1" gradientUnits="userSpaceOnUse" gradientTransform="rotate(179.416 986.466 399.233) scale(1587.6 2650.5)"><stop stop-color="#2E338E"/><stop offset="1" stop-color="#05C5F6"/></radialGradient><radialGradient id="paint1_radial" cx="0" cy="0" r="1" gradientUnits="userSpaceOnUse" gradientTransform="matrix(-1576.80616 184.81366 -308.54662 -2632.47967 1342.63 727.395)"><stop stop-color="#2E338E"/><stop offset="1" stop-color="#05C5F6"/></radialGradient></defs></svg>