<svg width="1280" height="1070" fill="none" xmlns="http://www.w3.org/2000/svg"><path d="M-78.107 297.689c12.72-31.531 52.523-41.445 78.547-19.563l225.23 189.378a49.999 49.999 0 0020.474 10.341l333.499 80.296c44.631 10.746 52.263 70.526 11.529 91.695-130.042 67.581-328.046 167.181-366.627 167.796-45.935.731-297.619-95.821-403.115-137.131-25.769-10.091-38.146-39.226-27.792-64.89l128.256-317.922z" fill="url(#paint0_linear)"/><path d="M-105.296 114.984c-2.297-34.413 30.116-60.763 63.335-51.488l315.326 88.035a60.013 60.013 0 0021.63 1.958L1257 65h36.22c23.05 0 43.12 15.765 48.58 38.165l44.81 183.941c4.78 19.615-2.48 40.002-18.84 51.833C1257.07 419 835.177 719.469 726 729 615.472 738.649 76.728 521.686-53.919 468.254c-17.584-7.191-29.381-23.745-30.647-42.701l-20.73-310.569z" fill="url(#paint1_linear)"/><path d="M-105.295 114.984c-2.297-34.413 30.115-60.763 63.334-51.488l315.326 88.035a60.013 60.013 0 0021.63 1.958L1257 65h36.22c23.05 0 43.12 15.765 48.58 38.165l44.83 184.041c4.77 19.565-2.44 39.905-18.73 51.748C1257.45 419.268 835.646 721.199 726 729 615.071 736.892 76.977 521.398-53.809 468.228c-17.637-7.17-29.494-23.757-30.762-42.753l-20.724-310.491z" fill="url(#paint2_radial)" fill-opacity=".65"/><defs><linearGradient id="paint0_linear" x1="-222.778" y1="406.242" x2="431.977" y2="658.582" gradientUnits="userSpaceOnUse"><stop stop-color="#32419C"/><stop offset="1" stop-color="#05C5F6"/></linearGradient><linearGradient id="paint1_linear" x1="188.5" y1="622" x2="1369.5" y2="-163.5" gradientUnits="userSpaceOnUse"><stop stop-color="#32419C"/><stop offset="1" stop-color="#0FB5E8"/></linearGradient><radialGradient id="paint2_radial" cx="0" cy="0" r="1" gradientUnits="userSpaceOnUse" gradientTransform="matrix(-266.00197 493.99862 -667.90095 -359.64265 813.5 315)"><stop stop-color="#9AFFFB"/><stop offset="1" stop-color="#32419C"/></radialGradient></defs></svg>