<svg width="187" height="27" fill="none" xmlns="http://www.w3.org/2000/svg"><path d="M19.797 17.879c-.317 2.707-1.319 4.799-3.006 6.275-1.676 1.465-3.908 2.198-6.697 2.198-3.024 0-5.45-1.084-7.278-3.252C1 20.932.092 18.03.092 14.398v-2.46c0-2.38.422-4.471 1.265-6.276.856-1.805 2.063-3.187 3.622-4.148C6.537.54 8.342.054 10.393.054c2.718 0 4.898.762 6.539 2.286 1.64 1.512 2.595 3.61 2.865 6.293h-3.393c-.293-2.04-.931-3.516-1.916-4.43-.972-.914-2.338-1.371-4.095-1.371-2.157 0-3.85.797-5.08 2.39-1.22 1.594-1.829 3.862-1.829 6.803v2.479c0 2.777.58 4.986 1.74 6.627 1.16 1.64 2.784 2.46 4.87 2.46 1.875 0 3.31-.421 4.306-1.265 1.008-.855 1.676-2.338 2.004-4.447h3.393zm3.252-1.565c0-1.863.363-3.539 1.09-5.027.738-1.488 1.758-2.637 3.058-3.445 1.313-.809 2.807-1.213 4.483-1.213 2.59 0 4.681.896 6.275 2.69 1.605 1.792 2.408 4.177 2.408 7.154v.228c0 1.852-.357 3.516-1.072 4.992-.703 1.465-1.717 2.608-3.041 3.428-1.313.82-2.824 1.23-4.535 1.23-2.578 0-4.67-.896-6.276-2.689-1.593-1.793-2.39-4.166-2.39-7.119v-.229zm3.27.387c0 2.11.486 3.803 1.458 5.08.985 1.278 2.297 1.916 3.938 1.916 1.652 0 2.965-.644 3.937-1.933.973-1.301 1.46-3.117 1.46-5.45 0-2.085-.499-3.773-1.495-5.062-.984-1.3-2.297-1.951-3.937-1.951-1.606 0-2.9.638-3.885 1.916-.985 1.277-1.477 3.105-1.477 5.484zm29.197 4.254c0-.879-.334-1.558-1.002-2.039-.657-.492-1.81-.914-3.463-1.266-1.64-.351-2.948-.773-3.92-1.265-.961-.492-1.676-1.078-2.145-1.758-.457-.68-.685-1.488-.685-2.426 0-1.558.656-2.877 1.968-3.955 1.325-1.078 3.012-1.617 5.063-1.617 2.156 0 3.902.557 5.238 1.67 1.348 1.113 2.022 2.537 2.022 4.271h-3.27c0-.89-.38-1.658-1.142-2.302-.75-.645-1.7-.967-2.848-.967-1.184 0-2.11.258-2.777.773-.668.516-1.002 1.19-1.002 2.022 0 .785.31 1.377.931 1.775.621.399 1.74.78 3.358 1.143 1.629.363 2.947.796 3.955 1.3s1.752 1.114 2.232 1.829c.492.703.739 1.564.739 2.584 0 1.699-.68 3.064-2.04 4.095-1.359 1.02-3.123 1.53-5.29 1.53-1.524 0-2.872-.27-4.044-.809-1.171-.54-2.091-1.29-2.76-2.25-.656-.973-.984-2.021-.984-3.146h3.252c.059 1.09.492 1.957 1.301 2.601.82.633 1.899.95 3.234.95 1.231 0 2.215-.247 2.954-.739.75-.504 1.125-1.172 1.125-2.004zM66.063 6.98l.087 2.11c1.395-1.64 3.276-2.461 5.643-2.461 2.66 0 4.47 1.02 5.432 3.059a7.23 7.23 0 012.46-2.215c1.02-.563 2.221-.844 3.604-.844 4.172 0 6.293 2.209 6.363 6.627V26H86.4V13.45c0-1.36-.31-2.374-.931-3.042-.621-.68-1.664-1.02-3.13-1.02-1.206 0-2.208.364-3.005 1.09-.797.715-1.26 1.682-1.389 2.9V26h-3.27V13.537c0-2.766-1.353-4.148-4.06-4.148-2.133 0-3.592.908-4.377 2.724V26h-3.252V6.98h3.077zm27.65 9.334c0-1.863.363-3.539 1.09-5.027C95.54 9.8 96.56 8.65 97.86 7.842c1.313-.809 2.807-1.213 4.483-1.213 2.59 0 4.681.896 6.275 2.69 1.606 1.792 2.408 4.177 2.408 7.154v.228c0 1.852-.357 3.516-1.072 4.992-.703 1.465-1.717 2.608-3.041 3.428-1.312.82-2.824 1.23-4.535 1.23-2.578 0-4.67-.896-6.276-2.689-1.593-1.793-2.39-4.166-2.39-7.119v-.229zm3.27.387c0 2.11.486 3.803 1.458 5.08.985 1.278 2.297 1.916 3.938 1.916 1.652 0 2.965-.644 3.937-1.933.973-1.301 1.459-3.117 1.459-5.45 0-2.085-.498-3.773-1.494-5.062-.984-1.3-2.297-1.951-3.937-1.951-1.606 0-2.9.638-3.885 1.916-.984 1.277-1.477 3.105-1.477 5.484zM119.974.406l8.367 20.883L136.709.406h4.377V26h-3.375v-9.967l.316-10.758L129.625 26h-2.584l-8.385-20.672.334 10.705V26h-3.375V.406h4.36zm41.537 13.764H150.42v9.07h12.885V26h-16.26V.406h16.084v2.778H150.42v8.226h11.092v2.76zM167.506 26V.406h7.224c2.227 0 4.196.492 5.907 1.477 1.711.984 3.029 2.385 3.955 4.201.937 1.816 1.412 3.902 1.424 6.258v1.635c0 2.414-.469 4.529-1.407 6.345-.925 1.817-2.255 3.211-3.99 4.184-1.723.973-3.732 1.47-6.029 1.494h-7.084zm3.375-22.816V23.24h3.551c2.601 0 4.623-.808 6.064-2.425 1.453-1.618 2.18-3.92 2.18-6.909v-1.494c0-2.906-.686-5.162-2.057-6.767-1.359-1.618-3.293-2.438-5.801-2.461h-3.937z" fill="#0FB5E8"/></svg>